# xmcd CD database file
#
# Track frame offsets:
#	183
#	17403
#	33558
#	44063
#	52348
#	70983
#	108458
#	124998
#	147975
#	166533
#	188625
#	197940
#
# Disc length: 2859 seconds
#
# Revision: 0
# Processed by: cddbd v1.5.1PL2 Copyright (c) Steve Scherf et al.
# Submitted via: CDex 1.51
#
DISCID=b20b290c
DTITLE=Marion Montgomery - I gotta right to sing
DYEAR=1993
DGENRE=Jazz
TTITLE0=In the dark, did i do
TTITLE1=Love dance
TTITLE2=People will say, we're in love
TTITLE3=That old black magic
TTITLE4=You came a long way
TTITLE5=Mean to me
TTITLE6=Ol' man river
TTITLE7=Georgia on my mind
TTITLE8=Yesterday's wine
TTITLE9=I gotta right to sing the blues
TTITLE10=He's my guy
TTITLE11=The lady is a tramp
EXTD=YEAR: 1993
EXTT0=
EXTT1=
EXTT2=
EXTT3=
EXTT4=
EXTT5=
EXTT6=
EXTT7=
EXTT8=
EXTT9=
EXTT10=
EXTT11=
PLAYORDER=
